<svg width="23" height="21" viewBox="0 0 23 21" fill="none" xmlns="http://www.w3.org/2000/svg">
<path d="M1.6 0.599995C1.49399 0.598495 1.38874 0.61808 1.29036 0.657611C1.19199 0.697142 1.10245 0.755831 1.02696 0.830267C0.951461 0.904702 0.891512 0.9934 0.850594 1.09121C0.809676 1.18901 0.788605 1.29397 0.788605 1.39999C0.788605 1.50601 0.809676 1.61098 0.850594 1.70878C0.891512 1.80659 0.951461 1.89529 1.02696 1.96972C1.10245 2.04416 1.19199 2.10285 1.29036 2.14238C1.38874 2.18191 1.49399 2.20149 1.6 2.19999H3.10312C3.28385 2.19999 3.43465 2.31317 3.48594 2.48749L6.89531 14.0781C7.19454 15.0955 8.13553 15.8 9.19687 15.8H17.9781C19.0569 15.8 20.0093 15.071 20.2938 14.0312L22.3719 6.41093C22.4043 6.29222 22.4089 6.16763 22.3854 6.04685C22.3618 5.92607 22.3107 5.81235 22.236 5.71454C22.1613 5.61673 22.0651 5.53747 21.9548 5.48291C21.8445 5.42836 21.7231 5.39998 21.6 5.4H18.4H14.4V7V10.6687L16.2344 8.83437C16.5472 8.52157 17.0528 8.52157 17.3656 8.83437C17.6784 9.14717 17.6784 9.65282 17.3656 9.96562L14.1656 13.1656C14.0096 13.3216 13.8048 13.4 13.6 13.4C13.3952 13.4 13.1904 13.3216 13.0344 13.1656L9.83438 9.96562C9.52157 9.65282 9.52157 9.14717 9.83438 8.83437C10.1472 8.52157 10.6528 8.52157 10.9656 8.83437L12.8 10.6687V7V6.2V5.4H6.01094L5.02187 2.03593H5.02031C4.7708 1.18786 3.9864 0.599995 3.10312 0.599995H1.6ZM12.8 5.4H14.4V1.39999C14.4 0.958395 14.0416 0.599995 13.6 0.599995C13.1584 0.599995 12.8 0.958395 12.8 1.39999V5.4ZM9.6 17.4C9.17565 17.4 8.76869 17.5686 8.46863 17.8686C8.16857 18.1687 8 18.5756 8 19C8 19.4243 8.16857 19.8313 8.46863 20.1314C8.76869 20.4314 9.17565 20.6 9.6 20.6C10.0243 20.6 10.4313 20.4314 10.7314 20.1314C11.0314 19.8313 11.2 19.4243 11.2 19C11.2 18.5756 11.0314 18.1687 10.7314 17.8686C10.4313 17.5686 10.0243 17.4 9.6 17.4ZM17.6 17.4C17.1757 17.4 16.7687 17.5686 16.4686 17.8686C16.1686 18.1687 16 18.5756 16 19C16 19.4243 16.1686 19.8313 16.4686 20.1314C16.7687 20.4314 17.1757 20.6 17.6 20.6C18.0243 20.6 18.4313 20.4314 18.7314 20.1314C19.0314 19.8313 19.2 19.4243 19.2 19C19.2 18.5756 19.0314 18.1687 18.7314 17.8686C18.4313 17.5686 18.0243 17.4 17.6 17.4Z" fill="white"/>
</svg>
